<svg width="26" height="26" viewBox="0 0 26 26" fill="none" xmlns="http://www.w3.org/2000/svg">
<g clip-path="url(#clip0_20_6292)">
<path d="M-5.68248e-07 13C-2.54413e-07 20.1797 5.82029 26 13 26C20.1797 26 26 20.1797 26 13C26 5.82029 20.1797 -8.82083e-07 13 -5.68248e-07C5.82029 -2.54413e-07 -8.82083e-07 5.82029 -5.68248e-07 13ZM24.375 13C24.375 19.2822 19.2822 24.375 13 24.375C6.71775 24.375 1.625 19.2822 1.625 13C1.625 6.71775 6.71775 1.625 13 1.625C19.2822 1.625 24.375 6.71775 24.375 13Z" fill="white"/>
<path d="M15.9168 13L9.9856 18.9232L11.1393 20.0769L17.6393 13.5769C17.9544 13.26 17.9544 12.7482 17.6393 12.4313L11.1393 5.93128L9.99372 7.0769L15.9168 13Z" fill="white"/>
</g>
<defs>
<clipPath id="clip0_20_6292">
<rect width="26" height="26" fill="white" transform="translate(0 26) rotate(-90)"/>
</clipPath>
</defs>
</svg>
