<svg xmlns="http://www.w3.org/2000/svg" width="18" height="19" viewBox="0 0 18 19" fill="none">
  <g clip-path="url(#clip0_27_7449)">
    <path d="M4.39857 4.78078H4.65609C5.04745 4.78078 5.36469 4.46343 5.36469 4.07218V1.3853C5.36469 0.994051 5.04745 0.676736 4.65609 0.676736H4.39857C4.00724 0.676736 3.69 0.994051 3.69 1.3853V4.07218C3.69 4.46343 4.00724 4.78078 4.39857 4.78078ZM13.4874 4.76322H13.7449C14.1362 4.76322 14.4535 4.44591 14.4535 4.05462V1.36771C14.4535 0.976494 14.1362 0.65918 13.7449 0.65918H13.4874C13.096 0.65918 12.7787 0.976494 12.7787 1.36771V4.05458C12.7788 4.44591 13.096 4.76322 13.4874 4.76322Z" fill="url(#paint0_linear_27_7449)"/>
    <path d="M16.8481 2.1167H15.0295V4.24013C15.0295 4.94848 14.4532 5.33917 13.745 5.33917H13.4874C12.7791 5.33917 12.2029 4.76289 12.2029 4.05455V2.1167H5.94071V4.0721C5.94071 4.78045 5.36447 5.35673 4.65612 5.35673H4.3986C3.6903 5.35673 3.11405 4.78045 3.11405 4.0721V2.1167H1.15197C0.516782 2.1167 0 2.63348 0 3.2687V17.1887C0 17.824 0.516782 18.3408 1.15197 18.3408H16.8481C17.4833 18.3408 18 17.824 18 17.1887V3.2687C18.0001 2.63352 17.4833 2.1167 16.8481 2.1167ZM16.8481 17.1887H1.152L1.15197 6.67669H16.8483L16.8489 17.1887L16.8481 17.1887Z" fill="url(#paint1_linear_27_7449)"/>
    <path d="M9.59472 10.2028H11.6632C11.7025 10.2028 11.7403 10.1871 11.7681 10.1593C11.796 10.1314 11.8116 10.0937 11.8116 10.0543V8.26321C11.8116 8.22384 11.796 8.18607 11.7681 8.15823C11.7403 8.13039 11.7025 8.11475 11.6632 8.11475H9.59472C9.55535 8.11475 9.51758 8.13039 9.48974 8.15823C9.4619 8.18607 9.44626 8.22384 9.44626 8.26321V10.0543C9.44626 10.0937 9.4619 10.1314 9.48974 10.1593C9.51758 10.1871 9.55535 10.2028 9.59472 10.2028ZM12.9703 10.2028H15.0388C15.0781 10.2028 15.1159 10.1871 15.1438 10.1593C15.1716 10.1314 15.1872 10.0937 15.1872 10.0543V8.26321C15.1872 8.22384 15.1716 8.18607 15.1438 8.15823C15.1159 8.13039 15.0781 8.11475 15.0388 8.11475H12.9703C12.931 8.11475 12.8932 8.13039 12.8654 8.15823C12.8375 8.18607 12.8219 8.22384 12.8219 8.26321V10.0543C12.8219 10.0937 12.8375 10.1314 12.8654 10.1593C12.8932 10.1871 12.931 10.2028 12.9703 10.2028ZM2.8436 13.135H4.91199C4.95136 13.135 4.98913 13.1194 5.01697 13.0915C5.04481 13.0637 5.06046 13.0259 5.06046 12.9866V11.1954C5.06046 11.1561 5.04481 11.1183 5.01697 11.0904C4.98913 11.0626 4.95136 11.047 4.91199 11.047H2.8436C2.80422 11.047 2.76646 11.0626 2.73861 11.0904C2.71077 11.1183 2.69513 11.1561 2.69513 11.1954V12.9866C2.69513 13.0259 2.71077 13.0637 2.73861 13.0915C2.76646 13.1194 2.80422 13.135 2.8436 13.135ZM6.21918 13.135H8.28757C8.32695 13.135 8.36471 13.1194 8.39255 13.0915C8.4204 13.0637 8.43604 13.0259 8.43604 12.9866V11.1954C8.43604 11.1561 8.4204 11.1183 8.39255 11.0904C8.36471 11.0626 8.32695 11.047 8.28757 11.047H6.21918C6.1798 11.047 6.14204 11.0626 6.1142 11.0904C6.08635 11.1183 6.07071 11.1561 6.07071 11.1954V12.9866C6.07071 13.0259 6.08635 13.0637 6.1142 13.0915C6.14204 13.1194 6.1798 13.135 6.21918 13.135ZM9.59476 13.135H11.6632C11.7025 13.135 11.7403 13.1194 11.7681 13.0915C11.796 13.0637 11.8116 13.0259 11.8116 12.9866V11.1954C11.8116 11.1561 11.796 11.1183 11.7681 11.0904C11.7403 11.0626 11.7025 11.047 11.6632 11.047H9.59476C9.55539 11.047 9.51762 11.0626 9.48978 11.0904C9.46194 11.1183 9.44629 11.1561 9.44629 11.1954V12.9866C9.44629 13.0259 9.46194 13.0637 9.48978 13.0915C9.51762 13.1194 9.55539 13.135 9.59476 13.135ZM12.9703 13.135H15.0388C15.0781 13.135 15.1159 13.1194 15.1438 13.0915C15.1716 13.0637 15.1872 13.0259 15.1872 12.9866V11.1954C15.1872 11.1561 15.1716 11.1183 15.1438 11.0904C15.1159 11.0626 15.0781 11.047 15.0388 11.047H12.9703C12.931 11.047 12.8932 11.0626 12.8654 11.0904C12.8375 11.1183 12.8219 11.1561 12.8219 11.1954V12.9866C12.8219 13.0259 12.8375 13.0637 12.8654 13.0915C12.8932 13.1194 12.931 13.135 12.9703 13.135ZM4.91199 13.9792H2.84364C2.80426 13.9792 2.7665 13.9949 2.73865 14.0227C2.71081 14.0505 2.69517 14.0883 2.69517 14.1277V15.9188C2.69517 15.9582 2.71081 15.996 2.73865 16.0238C2.7665 16.0516 2.80426 16.0673 2.84364 16.0673H4.91203C4.9514 16.0673 4.98917 16.0516 5.01701 16.0238C5.04485 15.996 5.06049 15.9582 5.06049 15.9188V14.1277C5.06047 14.0883 5.04482 14.0506 5.01697 14.0227C4.98913 13.9949 4.95137 13.9792 4.91199 13.9792ZM8.28761 13.9792H6.21922C6.17984 13.9792 6.14208 13.9949 6.11423 14.0227C6.08639 14.0505 6.07075 14.0883 6.07075 14.1277V15.9188C6.07075 15.9582 6.08639 15.996 6.11423 16.0238C6.14208 16.0516 6.17984 16.0673 6.21922 16.0673H8.28761C8.32698 16.0673 8.36475 16.0516 8.39259 16.0238C8.42043 15.996 8.43608 15.9582 8.43608 15.9188V14.1277C8.43608 14.0883 8.42043 14.0505 8.39259 14.0227C8.36475 13.9949 8.32698 13.9792 8.28761 13.9792ZM11.6632 13.9792H9.5948C9.55542 13.9792 9.51766 13.9949 9.48982 14.0227C9.46197 14.0505 9.44633 14.0883 9.44633 14.1277V15.9188C9.44633 15.9582 9.46197 15.996 9.48982 16.0238C9.51766 16.0516 9.55542 16.0673 9.5948 16.0673H11.6632C11.7026 16.0673 11.7404 16.0516 11.7682 16.0238C11.7961 15.996 11.8117 15.9582 11.8117 15.9188V14.1277C11.8117 14.0883 11.7961 14.0505 11.7682 14.0227C11.7404 13.9949 11.7026 13.9792 11.6632 13.9792ZM15.0388 13.9792H12.9703C12.931 13.9792 12.8932 13.9949 12.8654 14.0227C12.8375 14.0505 12.8219 14.0883 12.8219 14.1277V15.9188C12.8219 15.9582 12.8375 15.996 12.8654 16.0238C12.8932 16.0516 12.931 16.0673 12.9703 16.0673H15.0388C15.0781 16.0673 15.1159 16.0516 15.1438 16.0238C15.1716 15.996 15.1872 15.9582 15.1872 15.9188V14.1277C15.1872 14.0883 15.1716 14.0505 15.1438 14.0227C15.1159 13.9949 15.0781 13.9792 15.0388 13.9792Z" fill="url(#paint2_linear_27_7449)"/>
  </g>
  <defs>
    <linearGradient id="paint0_linear_27_7449" x1="11.1719" y1="8.06279" x2="11.1719" y2="-1.82141" gradientUnits="userSpaceOnUse">
      <stop stop-color="#24A363"/>
      <stop offset="1" stop-color="#4BDD48"/>
    </linearGradient>
    <linearGradient id="paint1_linear_27_7449" x1="12.5122" y1="31.2599" x2="12.5122" y2="-7.64778" gradientUnits="userSpaceOnUse">
      <stop stop-color="#24A363"/>
      <stop offset="1" stop-color="#4BDD48"/>
    </linearGradient>
    <linearGradient id="paint2_linear_27_7449" x1="11.3787" y1="22.3999" x2="11.3787" y2="3.3285" gradientUnits="userSpaceOnUse">
      <stop stop-color="#24A363"/>
      <stop offset="1" stop-color="#4BDD48"/>
    </linearGradient>
    <clipPath id="clip0_27_7449">
      <rect width="18" height="18" fill="white" transform="translate(0 0.5)"/>
    </clipPath>
  </defs>
</svg>