<svg width="30" height="31" viewBox="0 0 30 31" fill="none" xmlns="http://www.w3.org/2000/svg">
<g clip-path="url(#clip0_34_782)">
<path d="M23.7094 19.0839C23.0952 18.4444 22.3544 18.1025 21.5693 18.1025C20.7904 18.1025 20.0433 18.4381 19.4038 19.0776L17.403 21.0721C17.2384 20.9834 17.0737 20.9011 16.9154 20.8188C16.6875 20.7048 16.4722 20.5972 16.2886 20.4832C14.4144 19.2929 12.7112 17.7416 11.0776 15.7345C10.2861 14.734 9.75429 13.8919 9.36805 13.0371C9.88725 12.5623 10.3685 12.0684 10.837 11.5935C11.0143 11.4162 11.1916 11.2326 11.3689 11.0553C12.6985 9.72566 12.6985 8.00344 11.3689 6.67378L9.64032 4.94523C9.44403 4.74894 9.24142 4.54633 9.05147 4.34371C8.67157 3.95115 8.27267 3.54592 7.86111 3.16602C7.24693 2.55817 6.51245 2.23526 5.73999 2.23526C4.96752 2.23526 4.22038 2.55817 3.58721 3.16602L3.57454 3.17868L1.42176 5.35045C0.611304 6.16091 0.14909 7.14866 0.0477825 8.2947C-0.104178 10.1436 0.440348 11.8658 0.858241 12.9928C1.88398 15.7598 3.41625 18.3241 5.702 21.0721C8.47528 24.3836 11.8121 26.9986 15.6238 28.8411C17.0801 29.5312 19.0239 30.348 21.1957 30.4873C21.3286 30.4937 21.4679 30.5 21.5946 30.5C23.0572 30.5 24.2856 29.9745 25.248 28.9297C25.2543 28.9171 25.267 28.9107 25.2733 28.8981C25.6025 28.4992 25.9824 28.1383 26.3813 27.752C26.6536 27.4924 26.9322 27.2202 27.2045 26.9352C27.8313 26.2831 28.1606 25.5233 28.1606 24.7445C28.1606 23.9593 27.825 23.2059 27.1855 22.5727L23.7094 19.0839ZM25.9761 25.7512C25.9698 25.7512 25.9698 25.7575 25.9761 25.7512C25.7292 26.0171 25.4759 26.2577 25.2036 26.5237C24.7921 26.9162 24.3742 27.3278 23.9816 27.79C23.3421 28.4738 22.5887 28.7968 21.6009 28.7968C21.5059 28.7968 21.4046 28.7968 21.3096 28.7904C19.4291 28.6701 17.6816 27.9356 16.3709 27.3088C12.7872 25.5739 9.64032 23.1109 7.02532 19.9894C4.86621 17.387 3.42258 14.981 2.46649 12.3976C1.87765 10.821 1.66237 9.5927 1.75734 8.434C1.82066 7.69319 2.10559 7.07901 2.63112 6.55348L4.79023 4.39437C5.10048 4.10311 5.42973 3.94482 5.75265 3.94482C6.15155 3.94482 6.47446 4.18542 6.67708 4.38804L6.69607 4.40703C7.08231 4.76794 7.44955 5.14151 7.83578 5.54041C8.03206 5.74302 8.23468 5.94563 8.43729 6.15458L10.1658 7.88314C10.837 8.5543 10.837 9.1748 10.1658 9.84597C9.98223 10.0296 9.80494 10.2132 9.62132 10.3905C9.08946 10.935 8.58292 11.4416 8.03206 11.9354C8.0194 11.9481 8.00674 11.9544 8.0004 11.9671C7.45588 12.5116 7.55719 13.0435 7.67116 13.4044L7.69015 13.4614C8.1397 14.5504 8.77287 15.5762 9.73529 16.7982L9.74162 16.8045C11.4892 18.9573 13.3317 20.6352 15.3642 21.9205C15.6238 22.0852 15.8897 22.2181 16.143 22.3448C16.3709 22.4587 16.5862 22.5664 16.7698 22.6803C16.7951 22.693 16.8205 22.712 16.8458 22.7247C17.0611 22.8323 17.2637 22.8829 17.4726 22.8829C17.9982 22.8829 18.3274 22.5537 18.4351 22.4461L20.6005 20.2806C20.8158 20.0653 21.1577 19.8057 21.5566 19.8057C21.9492 19.8057 22.2721 20.0527 22.4683 20.268L22.481 20.2806L25.9698 23.7694C26.622 24.4152 26.622 25.08 25.9761 25.7512ZM16.2126 7.6362C17.8715 7.9148 19.3785 8.69993 20.5815 9.90295C21.7845 11.106 22.5633 12.6129 22.8483 14.2718C22.9179 14.6897 23.2788 14.981 23.6904 14.981C23.741 14.981 23.7853 14.9746 23.836 14.9683C24.3045 14.8923 24.6148 14.4491 24.5388 13.9806C24.1969 11.9734 23.2472 10.1436 21.7972 8.69359C20.3472 7.24363 18.5174 6.29388 16.5102 5.95197C16.0417 5.87599 15.6048 6.18624 15.5225 6.64845C15.4402 7.11067 15.7441 7.56022 16.2126 7.6362ZM29.9651 13.7336C29.4016 10.4285 27.844 7.42092 25.4506 5.02754C23.0572 2.63415 20.0496 1.07655 16.7445 0.513032C16.2823 0.430719 15.8454 0.747305 15.7631 1.20952C15.6871 1.67807 15.9973 2.11495 16.4659 2.19727C19.4165 2.69747 22.1074 4.09678 24.2476 6.23056C26.3877 8.37068 27.7807 11.0617 28.2809 14.0122C28.3505 14.4301 28.7114 14.7214 29.123 14.7214C29.1736 14.7214 29.2179 14.715 29.2686 14.7087C29.7308 14.6391 30.0474 14.1958 29.9651 13.7336Z" fill="url(#paint0_linear_34_782)"/>
</g>
<defs>
<linearGradient id="paint0_linear_34_782" x1="20.8451" y1="54.3889" x2="20.8451" y2="-17.5556" gradientUnits="userSpaceOnUse">
<stop stop-color="#24A363"/>
<stop offset="1" stop-color="#4BDD48"/>
</linearGradient>
<clipPath id="clip0_34_782">
<rect width="30" height="30" fill="white" transform="translate(0 0.5)"/>
</clipPath>
</defs>
</svg>
