<svg width="26" height="26" viewBox="0 0 26 26" fill="none" xmlns="http://www.w3.org/2000/svg">
<g clip-path="url(#clip0_28_10629)">
<path d="M-5.68248e-07 13C-2.54413e-07 20.1797 5.82029 26 13 26C20.1797 26 26 20.1797 26 13C26 5.82029 20.1797 -8.82083e-07 13 -5.68248e-07C5.82029 -2.54413e-07 -8.82083e-07 5.82029 -5.68248e-07 13ZM24.375 13C24.375 19.2822 19.2822 24.375 13 24.375C6.71775 24.375 1.625 19.2822 1.625 13C1.625 6.71775 6.71775 1.625 13 1.625C19.2822 1.625 24.375 6.71775 24.375 13Z" fill="white"/>
<path d="M11.375 16.2351V16.1136C11.3835 15.321 11.4624 14.6903 11.6115 14.2216C11.7649 13.7528 11.9822 13.3736 12.2635 13.0838C12.5447 12.794 12.8835 12.5298 13.2798 12.2912C13.5355 12.1293 13.7656 11.9482 13.9702 11.7479C14.1747 11.5476 14.3366 11.3175 14.456 11.0575C14.5753 10.7976 14.6349 10.5099 14.6349 10.1946C14.6349 9.81534 14.5455 9.48722 14.3665 9.21023C14.1875 8.93324 13.9489 8.72017 13.6506 8.57102C13.3565 8.41761 13.0284 8.34091 12.6662 8.34091C12.3381 8.34091 12.0249 8.40909 11.7266 8.54545C11.4283 8.68182 11.1811 8.89489 10.9851 9.18466C10.7891 9.47017 10.6761 9.83878 10.6463 10.2905H8.70312C8.73295 9.52344 8.92685 8.87571 9.2848 8.3473C9.64276 7.81463 10.1158 7.41193 10.7038 7.1392C11.2962 6.86648 11.9503 6.73011 12.6662 6.73011C13.4503 6.73011 14.1364 6.87713 14.7244 7.17116C15.3125 7.46094 15.7685 7.8679 16.0923 8.39205C16.4205 8.91193 16.5845 9.51918 16.5845 10.2138C16.5845 10.6911 16.5099 11.1214 16.3608 11.505C16.2116 11.8842 15.9986 12.223 15.7216 12.5213C15.4489 12.8196 15.1207 13.0838 14.7372 13.3139C14.375 13.5398 14.081 13.7741 13.8551 14.017C13.6335 14.2599 13.4716 14.5476 13.3693 14.88C13.267 15.2124 13.2116 15.6236 13.2031 16.1136V16.2351H11.375ZM12.3402 20.1214C11.9908 20.1214 11.6903 19.9979 11.4389 19.7507C11.1875 19.4993 11.0618 19.1967 11.0618 18.843C11.0618 18.4936 11.1875 18.1953 11.4389 17.9482C11.6903 17.6967 11.9908 17.571 12.3402 17.571C12.6854 17.571 12.9837 17.6967 13.2351 17.9482C13.4908 18.1953 13.6186 18.4936 13.6186 18.843C13.6186 19.0774 13.5589 19.2926 13.4396 19.4886C13.3246 19.6804 13.1712 19.8338 12.9794 19.9489C12.7876 20.0639 12.5746 20.1214 12.3402 20.1214Z" fill="white"/>
</g>
<defs>
<clipPath id="clip0_28_10629">
<rect width="26" height="26" fill="white" transform="translate(0 26) rotate(-90)"/>
</clipPath>
</defs>
</svg>
