<svg width="30" height="30" viewBox="0 0 30 30" fill="none" xmlns="http://www.w3.org/2000/svg">
<g clip-path="url(#clip0_34_758)">
<path d="M15 0C9.06044 0 4.22827 4.83217 4.22827 10.7717C4.22827 13.9539 5.97841 18.1335 9.43017 23.1946C11.0115 25.5038 12.732 27.7145 14.582 29.8146C14.6349 29.873 14.6994 29.9196 14.7714 29.9516C14.8433 29.9835 14.9212 30 15 30C15.0787 30 15.1566 29.9835 15.2286 29.9516C15.3006 29.9196 15.3651 29.873 15.4179 29.8146C17.268 27.7145 18.9884 25.5038 20.5697 23.1946C24.0215 18.1335 25.7717 13.9539 25.7717 10.7717C25.7717 4.83217 20.9395 0 15 0ZM15 28.581C13.097 26.3764 5.35608 17.0231 5.35608 10.7717C5.35608 5.45408 9.6823 1.12781 15 1.12781C20.3176 1.12781 24.6439 5.45408 24.6439 10.7717C24.6439 17.0231 16.903 26.3764 15 28.581Z" fill="url(#paint0_linear_34_758)"/>
<path d="M14.9999 5.39392C14.0229 5.39391 13.0678 5.68363 12.2554 6.22644C11.443 6.76925 10.8098 7.54078 10.4359 8.44345C10.062 9.34612 9.96412 10.3394 10.1547 11.2977C10.3453 12.256 10.8158 13.1362 11.5067 13.8271C12.1976 14.518 13.0778 14.9885 14.0361 15.1791C14.9944 15.3697 15.9876 15.2719 16.8903 14.898C17.793 14.5241 18.5645 13.8909 19.1073 13.0785C19.6502 12.2661 19.9399 11.311 19.9399 10.334C19.9384 9.02425 19.4175 7.7686 18.4914 6.84249C17.5653 5.91638 16.3096 5.39543 14.9999 5.39392ZM14.9999 14.1461C14.2459 14.1461 13.5089 13.9226 12.8819 13.5037C12.255 13.0848 11.7664 12.4894 11.4778 11.7928C11.1893 11.0962 11.1138 10.3297 11.2609 9.59019C11.408 8.85068 11.7711 8.1714 12.3042 7.63825C12.8374 7.1051 13.5166 6.74202 14.2561 6.59492C14.9956 6.44783 15.7622 6.52333 16.4588 6.81187C17.1554 7.10042 17.7507 7.58905 18.1696 8.21598C18.5885 8.8429 18.8121 9.57997 18.8121 10.334C18.8109 11.3447 18.4089 12.3136 17.6943 13.0283C16.9796 13.743 16.0106 14.145 14.9999 14.1461Z" fill="url(#paint1_linear_34_758)"/>
</g>
<defs>
<linearGradient id="paint0_linear_34_758" x1="19.2036" y1="53.8889" x2="19.2036" y2="-18.0556" gradientUnits="userSpaceOnUse">
<stop stop-color="#24A363"/>
<stop offset="1" stop-color="#4BDD48"/>
</linearGradient>
<linearGradient id="paint1_linear_34_758" x1="16.9277" y1="23.1415" x2="16.9277" y2="-0.552425" gradientUnits="userSpaceOnUse">
<stop stop-color="#24A363"/>
<stop offset="1" stop-color="#4BDD48"/>
</linearGradient>
<clipPath id="clip0_34_758">
<rect width="30" height="30" fill="white"/>
</clipPath>
</defs>
</svg>
