<svg width="26" height="26" viewBox="0 0 26 26" fill="none" xmlns="http://www.w3.org/2000/svg">
<rect width="26" height="26" rx="6" fill="#30BC57"/>
<g clip-path="url(#clip0_34_816)">
<path d="M6.29225 8.60192C8.2137 10.2292 11.5852 13.092 12.5762 13.9846C12.7092 14.1051 12.8519 14.1664 13 14.1664C13.1478 14.1664 13.2903 14.1057 13.423 13.9858C14.4148 13.0923 17.7863 10.2292 19.7078 8.60192C19.8274 8.5008 19.8456 8.32307 19.7488 8.19945C19.5249 7.91379 19.1911 7.75 18.8333 7.75H7.16668C6.80894 7.75 6.4751 7.91379 6.25123 8.19948C6.15438 8.32307 6.17262 8.5008 6.29225 8.60192ZM19.8308 9.48376C19.7804 9.46024 19.7243 9.45171 19.6691 9.45919C19.614 9.46666 19.5621 9.48983 19.5198 9.52592C18.2614 10.5926 16.6034 12.002 15.353 13.0775C15.3205 13.1054 15.2946 13.1401 15.2771 13.1792C15.2595 13.2183 15.2509 13.2608 15.2516 13.3036C15.2524 13.3465 15.2625 13.3886 15.2814 13.4271C15.3004 13.4655 15.3275 13.4993 15.361 13.5261C16.5228 14.4566 18.2737 15.7366 19.538 16.6464C19.5876 16.6822 19.6472 16.7014 19.7084 16.7014C19.7539 16.7014 19.7995 16.6908 19.8414 16.6692C19.8891 16.6447 19.9292 16.6075 19.9572 16.5618C19.9852 16.516 20 16.4633 20 16.4097V9.74836C20 9.69271 19.9841 9.63822 19.9541 9.59133C19.9241 9.54444 19.8813 9.50711 19.8308 9.48376ZM6.462 16.6464C7.72665 15.7366 9.4778 14.4566 10.6393 13.5261C10.6728 13.4993 10.7 13.4655 10.7189 13.4271C10.7378 13.3886 10.748 13.3465 10.7487 13.3036C10.7495 13.2608 10.7408 13.2183 10.7233 13.1792C10.7057 13.1401 10.6798 13.1054 10.6473 13.0775C9.39689 12.002 7.7386 10.5926 6.48024 9.52592C6.4378 9.48999 6.38597 9.46694 6.33087 9.45947C6.27577 9.452 6.21968 9.46043 6.1692 9.48376C6.11868 9.50711 6.0759 9.54443 6.04591 9.59132C6.01593 9.63821 6 9.69271 6 9.74836L6 16.4097C6 16.5191 6.06125 16.6194 6.15865 16.6692C6.19977 16.6904 6.2454 16.7015 6.29168 16.7014C6.35282 16.7014 6.41243 16.6822 6.462 16.6464Z" fill="white"/>
<path d="M19.6426 17.44C18.4215 16.5664 16.1722 14.9377 14.8295 13.8479C14.7202 13.7588 14.5618 13.7616 14.4541 13.8545C14.1907 14.0844 13.9702 14.2781 13.8138 14.4187C13.3336 14.8523 12.6671 14.8523 12.1857 14.4182C12.0299 14.2778 11.8095 14.0835 11.546 13.8545C11.4392 13.761 11.2805 13.7582 11.1709 13.8479C9.83271 14.934 7.58084 16.5646 6.35778 17.4399C6.32413 17.4641 6.29599 17.4951 6.27522 17.531C6.25445 17.5668 6.24153 17.6066 6.2373 17.6478C6.23316 17.6891 6.23784 17.7307 6.25106 17.77C6.26427 17.8093 6.2857 17.8453 6.31392 17.8757C6.5347 18.1136 6.84573 18.25 7.16675 18.25H18.8334C19.1544 18.25 19.4652 18.1136 19.6865 17.8757C19.7147 17.8454 19.7361 17.8094 19.7493 17.7702C19.7625 17.7309 19.7672 17.6893 19.7631 17.6482C19.7589 17.6069 19.7459 17.567 19.7252 17.5311C19.7044 17.4952 19.6763 17.4642 19.6426 17.44Z" fill="white"/>
</g>
<defs>
<clipPath id="clip0_34_816">
<rect width="14" height="14" fill="white" transform="translate(6 6)"/>
</clipPath>
</defs>
</svg>
