<svg width="26" height="26" viewBox="0 0 26 26" fill="none" xmlns="http://www.w3.org/2000/svg">
<path d="M18.2193 9.21079L11.6263 14.5999L11.316 14.854C11.2479 14.908 11.2034 14.9864 11.1919 15.0726L11.1225 15.6458L10.9319 17.256C10.9337 17.2756 10.9276 17.2951 10.915 17.3102C10.9024 17.3253 10.8843 17.3348 10.8647 17.3365C10.8451 17.3383 10.8256 17.3322 10.8105 17.3196C10.7954 17.307 10.786 17.2889 10.7842 17.2693L10.248 15.6591L9.69398 14.0119C9.67035 13.9381 9.67337 13.8583 9.70253 13.7865C9.73169 13.7147 9.78513 13.6554 9.85353 13.619L16.714 9.68647L18.0051 8.94783C18.1927 8.83852 18.3848 9.07488 18.2193 9.21079Z" fill="#30BC57"/>
<path d="M22.4545 0H3.54545C2.60514 0 1.70334 0.373538 1.03844 1.03844C0.373538 1.70334 0 2.60514 0 3.54545L0 22.4545C0 23.3949 0.373538 24.2967 1.03844 24.9616C1.70334 25.6265 2.60514 26 3.54545 26H22.4545C23.3949 26 24.2967 25.6265 24.9616 24.9616C25.6265 24.2967 26 23.3949 26 22.4545V3.54545C26 2.60514 25.6265 1.70334 24.9616 1.03844C24.2967 0.373538 23.3949 0 22.4545 0ZM21.1087 7.52523L18.5708 18.7392C18.4511 19.2651 17.7834 19.503 17.3151 19.1824L13.4831 16.5824L11.5316 18.4275C11.452 18.5022 11.3554 18.5563 11.2502 18.5852C11.145 18.6141 11.0343 18.6168 10.9277 18.5933C10.8212 18.5697 10.722 18.5205 10.6388 18.4499C10.5556 18.3793 10.4909 18.2895 10.4502 18.1882L9.74557 16.12L9.04091 14.0518L5.26352 13.0177C5.15791 12.9947 5.06287 12.9374 4.99318 12.8547C4.9235 12.7721 4.88307 12.6687 4.87818 12.5607C4.8733 12.4527 4.90423 12.3462 4.96617 12.2576C5.0281 12.169 5.11758 12.1033 5.22068 12.0708L19.8132 6.81318L20.082 6.71716C20.6478 6.5192 21.2328 6.97716 21.1087 7.52523Z" fill="#30BC57"/>
</svg>
