<svg width="26" height="26" viewBox="0 0 26 26" fill="none" xmlns="http://www.w3.org/2000/svg">
<path d="M22.4545 0H3.54545C1.58735 0 0 1.58735 0 3.54545V22.4545C0 24.4126 1.58735 26 3.54545 26H22.4545C24.4126 26 26 24.4126 26 22.4545V3.54545C26 1.58735 24.4126 0 22.4545 0Z" fill="#30BC57"/>
<path d="M18.7319 7.2682C17.3794 5.90216 15.5832 5.06441 13.6674 4.90607C11.7516 4.74772 9.84226 5.2792 8.28379 6.40464C6.72533 7.53008 5.62033 9.17539 5.16813 11.0438C4.71592 12.9122 4.94627 14.8807 5.81762 16.5942L4.96228 20.7468C4.9534 20.7882 4.95315 20.8309 4.96154 20.8723C4.96993 20.9137 4.98677 20.953 5.01103 20.9876C5.04655 21.0402 5.09727 21.0806 5.1564 21.1036C5.21553 21.1266 5.28025 21.1309 5.34194 21.1161L9.41182 20.1515C11.1205 21.0008 13.0751 21.2163 14.9278 20.7597C16.7805 20.3032 18.4112 19.2041 19.5296 17.6581C20.648 16.1121 21.1817 14.2194 21.0356 12.3169C20.8895 10.4144 20.0732 8.62536 18.7319 7.2682ZM17.463 17.3964C16.5271 18.3296 15.3221 18.9456 14.0176 19.1576C12.7131 19.3696 11.375 19.167 10.1918 18.5782L9.62455 18.2975L7.12944 18.8884L7.13682 18.8574L7.65387 16.346L7.37614 15.798C6.77158 14.6106 6.55831 13.2624 6.76689 11.9465C6.97547 10.6305 7.59519 9.41436 8.53728 8.47217C9.72102 7.28879 11.3263 6.62401 13.0001 6.62401C14.6739 6.62401 16.2792 7.28879 17.463 8.47217C17.473 8.48373 17.4839 8.49459 17.4955 8.50467C18.6645 9.6911 19.3172 11.2916 19.3111 12.9572C19.305 14.6228 18.6407 16.2185 17.463 17.3964Z" fill="white"/>
<path d="M17.2413 15.5542C16.9355 16.0358 16.4524 16.6252 15.8452 16.7715C14.7816 17.0285 13.1492 16.7804 11.118 14.8865L11.0928 14.8643C9.30682 13.2083 8.84296 11.83 8.95523 10.7368C9.01728 10.1164 9.53432 9.55502 9.97012 9.18865C10.039 9.12985 10.1207 9.08798 10.2087 9.0664C10.2967 9.04482 10.3885 9.04412 10.4768 9.06436C10.565 9.08461 10.6474 9.12523 10.7172 9.18298C10.7869 9.24073 10.8422 9.314 10.8786 9.39695L11.536 10.8742C11.5787 10.97 11.5946 11.0756 11.5818 11.1797C11.5691 11.2838 11.5282 11.3825 11.4636 11.4651L11.1313 11.8965C11.0599 11.9856 11.0169 12.0939 11.0077 12.2077C10.9985 12.3214 11.0235 12.4353 11.0795 12.5347C11.2657 12.8612 11.7118 13.3413 12.2067 13.7859C12.7622 14.2882 13.3782 14.7476 13.7682 14.9042C13.8725 14.9469 13.9873 14.9573 14.0976 14.9341C14.2079 14.9109 14.3088 14.8552 14.3872 14.7742L14.7727 14.3857C14.8471 14.3123 14.9396 14.26 15.0409 14.2341C15.1421 14.2081 15.2483 14.2095 15.3489 14.238L16.9103 14.6812C16.9965 14.7076 17.0754 14.7533 17.1412 14.815C17.2069 14.8766 17.2577 14.9524 17.2896 15.0367C17.3215 15.1209 17.3338 15.2113 17.3254 15.301C17.317 15.3907 17.2882 15.4773 17.2413 15.5542Z" fill="white"/>
</svg>
